# xmcd CD database file
#
# Track frame offsets:
#	150
#	11841
#	24172
#	37446
#	48506
#	61021
#	73780
#	94850
#	114765
#	133194
#	147901
#	164010
#
# Disc length: 2407 seconds
#
# Revision: 0
# Processed by: cddbd v1.5.2PL0 Copyright (c) Steve Scherf et al.
# Submitted via: CDex 1.51
#
DISCID=aa09650c
DTITLE=Bebo and Cacho - Jazzcuba Volume 2
DYEAR=2007
DGENRE=Jazz
TTITLE0=Sabor
TTITLE1=Tranquilo Niño
TTITLE2=Estoy Matizado
TTITLE3=Cactus Mambo
TTITLE4=Dile a Catalina
TTITLE5=Special del Bebo
TTITLE6=Melodia Brillante
TTITLE7=Conciencia Musical
TTITLE8=El Señor Violin
TTITLE9=Carlos, Yera y Pascualito
TTITLE10=El Estio
TTITLE11=Santa
EXTD=YEAR: 2007
EXTT0=
EXTT1=
EXTT2=
EXTT3=
EXTT4=
EXTT5=
EXTT6=
EXTT7=
EXTT8=
EXTT9=
EXTT10=
EXTT11=
PLAYORDER=
